<svg width="16" height="16" viewBox="0 0 16 16" fill="none" xmlns="http://www.w3.org/2000/svg">
<path d="M4.08335 8.09996L2.53335 7.43329C2.31112 7.3444 2.18046 7.18329 2.14135 6.94996C2.10223 6.71662 2.16623 6.51662 2.33335 6.34996L4.43335 4.24996C4.5889 4.0944 4.77223 3.98329 4.98335 3.91662C5.19446 3.84996 5.41112 3.83885 5.63335 3.88329L6.50001 4.06662C5.91112 4.76662 5.44179 5.40285 5.09201 5.97529C4.74223 6.54774 4.40601 7.25596 4.08335 8.09996ZM13.8833 1.59996C13.9722 1.59996 14.0611 1.62218 14.15 1.66662C14.2389 1.71107 14.3167 1.76662 14.3833 1.83329C14.45 1.89996 14.5056 1.97774 14.55 2.06662C14.5945 2.15551 14.6167 2.2444 14.6167 2.33329C14.6611 3.36662 14.4418 4.43885 13.9587 5.54996C13.4756 6.66107 12.7949 7.65551 11.9167 8.53329C11.3167 9.13329 10.7389 9.61396 10.1833 9.97529C9.62779 10.3366 8.97223 10.6782 8.21668 11C8.07223 11.0555 7.92512 11.0833 7.77535 11.0833C7.62557 11.0833 7.4949 11.0277 7.38335 10.9166L5.30001 8.83329C5.1889 8.72218 5.13335 8.59151 5.13335 8.44129C5.13335 8.29107 5.16112 8.14396 5.21668 7.99996C5.5389 7.25551 5.88068 6.60262 6.24201 6.04129C6.60335 5.47996 7.08379 4.89951 7.68335 4.29996C8.56112 3.42218 9.55557 2.74151 10.6667 2.25796C11.7778 1.7744 12.85 1.55507 13.8833 1.59996ZM9.65001 6.56662C9.90557 6.82218 10.2196 6.94996 10.592 6.94996C10.9645 6.94996 11.2782 6.82218 11.5333 6.56662C11.7889 6.31107 11.9167 5.99729 11.9167 5.62529C11.9167 5.25329 11.7889 4.93929 11.5333 4.68329C11.2778 4.42774 10.9638 4.29996 10.5913 4.29996C10.2189 4.29996 9.90512 4.42774 9.65001 4.68329C9.39446 4.93885 9.26668 5.25285 9.26668 5.62529C9.26668 5.99774 9.39446 6.31151 9.65001 6.56662ZM8.11668 12.1333C8.96112 11.8111 9.67223 11.4751 10.25 11.1253C10.8278 10.7755 11.4667 10.306 12.1667 9.71662L12.3333 10.5833C12.3778 10.8055 12.3667 11.0251 12.3 11.242C12.2333 11.4588 12.1222 11.6448 11.9667 11.8L9.86668 13.9C9.70001 14.0666 9.50001 14.1277 9.26668 14.0833C9.03335 14.0388 8.87223 13.9055 8.78335 13.6833L8.11668 12.1333ZM2.70001 10.7C3.08668 10.3111 3.55935 10.114 4.11801 10.1086C4.67668 10.1028 5.14935 10.2944 5.53601 10.6833C5.92312 11.0722 6.11668 11.5444 6.11668 12.1C6.11668 12.6555 5.92223 13.1277 5.53335 13.5166C5.25557 13.7944 4.79179 14.0333 4.14201 14.2333C3.49223 14.4333 2.5949 14.6111 1.45001 14.7666C1.60557 13.6222 1.78335 12.7273 1.98335 12.082C2.18335 11.4362 2.42223 10.9755 2.70001 10.7Z" fill="#6B788E"/>
</svg>
