<svg width="16" height="16" viewBox="0 0 16 16" fill="none" xmlns="http://www.w3.org/2000/svg">
<path d="M14.5 7.27778V5.11111C14.5 4.72802 14.3478 4.36062 14.0769 4.08973C13.806 3.81885 13.4386 3.66667 13.0556 3.66667H8.72222M8.72222 3.66667L10.8889 5.83333M8.72222 3.66667L10.8889 1.5M1.5 8.72222V10.8889C1.5 11.272 1.65218 11.6394 1.92307 11.9103C2.19395 12.1812 2.56135 12.3333 2.94444 12.3333H7.27778M7.27778 12.3333L5.11111 10.1667M7.27778 12.3333L5.11111 14.5M1.5 2.22222C1.5 2.03068 1.57609 1.84698 1.71153 1.71153C1.84698 1.57609 2.03068 1.5 2.22222 1.5H5.11111C5.30266 1.5 5.48636 1.57609 5.6218 1.71153C5.75724 1.84698 5.83333 2.03068 5.83333 2.22222V5.11111C5.83333 5.30266 5.75724 5.48636 5.6218 5.6218C5.48636 5.75724 5.30266 5.83333 5.11111 5.83333H2.22222C2.03068 5.83333 1.84698 5.75724 1.71153 5.6218C1.57609 5.48636 1.5 5.30266 1.5 5.11111V2.22222ZM10.1667 10.8889C10.1667 10.6973 10.2428 10.5136 10.3782 10.3782C10.5136 10.2428 10.6973 10.1667 10.8889 10.1667H13.7778C13.9693 10.1667 14.153 10.2428 14.2885 10.3782C14.4239 10.5136 14.5 10.6973 14.5 10.8889V13.7778C14.5 13.9693 14.4239 14.153 14.2885 14.2885C14.153 14.4239 13.9693 14.5 13.7778 14.5H10.8889C10.6973 14.5 10.5136 14.4239 10.3782 14.2885C10.2428 14.153 10.1667 13.9693 10.1667 13.7778V10.8889Z" stroke="#6B788E" stroke-linecap="round" stroke-linejoin="round"/>
</svg>
