<svg width="40" height="40" viewBox="0 0 40 40" fill="none" xmlns="http://www.w3.org/2000/svg">
<path d="M13.0333 12.05C13.4936 12.05 13.8667 11.6769 13.8667 11.2167C13.8667 10.7564 13.4936 10.3833 13.0333 10.3833C12.5731 10.3833 12.2 10.7564 12.2 11.2167C12.2 11.6769 12.5731 12.05 13.0333 12.05Z" fill="#6B788E"/>
<path d="M13.0333 14.1083V26.5917M27.5917 26.5917V18.5833C27.5895 17.2977 27.0778 16.0654 26.1687 15.1563C25.2596 14.2472 24.0273 13.7355 22.7417 13.7333C21.4546 13.7333 20.2201 14.2441 19.3092 15.1534C18.3984 16.0627 17.8855 17.2963 17.8833 18.5833M17.8833 18.5833V26.5917M17.8833 18.5833V14.1083" stroke="#6B788E" stroke-width="2" stroke-linecap="round" stroke-linejoin="round"/>
<path d="M33.75 4.58334H6.25C5.80798 4.58334 5.38405 4.75894 5.07149 5.0715C4.75893 5.38406 4.58334 5.80798 4.58334 6.25001V33.75C4.58334 34.192 4.75893 34.616 5.07149 34.9285C5.38405 35.2411 5.80798 35.4167 6.25 35.4167H33.75C34.192 35.4167 34.616 35.2411 34.9285 34.9285C35.2411 34.616 35.4167 34.192 35.4167 33.75V6.25001C35.4167 5.80798 35.2411 5.38406 34.9285 5.0715C34.616 4.75894 34.192 4.58334 33.75 4.58334Z" stroke="#6B788E" stroke-width="2" stroke-linecap="round" stroke-linejoin="round"/>
</svg>
