<svg width="40" height="40" viewBox="0 0 40 40" fill="none" xmlns="http://www.w3.org/2000/svg">
<path d="M20 2.08335C15.7441 2.08116 11.6265 3.59399 8.38433 6.35095C5.14218 9.10791 2.98729 12.9289 2.30552 17.1298C1.62375 21.3307 2.45963 25.6372 4.66348 29.278C6.86733 32.9187 10.2952 35.6562 14.3333 37C15.2333 37.1667 15.5583 36.6167 15.5583 36.1667V33.125C10.5583 34.2083 9.52501 30.725 9.52501 30.725C9.19428 29.6229 8.47472 28.6783 7.50001 28.0667C5.87501 26.9583 7.62501 26.975 7.62501 26.975C8.19264 27.0545 8.73465 27.2624 9.20976 27.583C9.68487 27.9036 10.0806 28.3284 10.3667 28.825C11.9667 31.5667 14.5333 30.775 15.5833 30.3167C15.6662 29.4063 16.071 28.5554 16.725 27.9167C12.7417 27.4667 8.55834 25.9333 8.55834 19.0667C8.53194 17.2853 9.19474 15.5626 10.4083 14.2583C9.85697 12.7138 9.91962 11.0164 10.5833 9.51668C10.5833 9.51668 12.0833 9.03335 15.5083 11.35C18.4437 10.55 21.5397 10.55 24.475 11.35C27.9 9.03335 29.4 9.51668 29.4 9.51668C30.0587 11.0176 30.1213 12.713 29.575 14.2583C30.7863 15.5635 31.4462 17.2863 31.4167 19.0667C31.4167 25.95 27.25 27.4583 23.2417 27.9083C23.6718 28.3441 24.003 28.8674 24.213 29.4425C24.4229 30.0177 24.5066 30.6313 24.4583 31.2417V36.1583C24.4583 36.75 24.7833 37.1917 25.6917 36.9917C29.7257 35.6426 33.1481 32.9023 35.3468 29.261C37.5454 25.6198 38.3769 21.315 37.6924 17.1168C37.0079 12.9187 34.8521 9.10098 31.6107 6.34668C28.3692 3.59238 24.2536 2.08116 20 2.08335Z" stroke="#6B788E" stroke-width="2" stroke-linecap="round" stroke-linejoin="round"/>
</svg>
