<svg width="16" height="16" viewBox="0 0 16 16" fill="none" xmlns="http://www.w3.org/2000/svg">
<path d="M7.36375 13.5907C7.34353 13.6719 7.29674 13.744 7.23083 13.7955C7.16491 13.847 7.08366 13.8751 7 13.8751C6.96924 13.875 6.9386 13.8712 6.90875 13.8638L4.90875 13.3638C4.86717 13.3532 4.82766 13.3357 4.79187 13.312L3.29187 12.312C3.25083 12.2846 3.21558 12.2495 3.18813 12.2085C3.16067 12.1676 3.14155 12.1216 3.13186 12.0733C3.11229 11.9756 3.1323 11.8742 3.1875 11.7913C3.2427 11.7085 3.32856 11.6509 3.42619 11.6313C3.47454 11.6216 3.52432 11.6216 3.57269 11.6311C3.62106 11.6406 3.66708 11.6596 3.70812 11.687L5.15375 12.6507L7.09125 13.1351C7.13908 13.1471 7.18409 13.1684 7.22368 13.1977C7.26328 13.2271 7.29669 13.2641 7.322 13.3064C7.34731 13.3487 7.36403 13.3956 7.37119 13.4444C7.37836 13.4932 7.37583 13.5429 7.36375 13.5907ZM15.6594 7.55321C15.6235 7.66222 15.5663 7.76304 15.4913 7.84983C15.4162 7.93662 15.3246 8.00766 15.2219 8.05883L13.7219 8.80883L10.265 12.2657C10.1946 12.3358 10.0993 12.3752 10 12.3751C9.96924 12.375 9.9386 12.3713 9.90875 12.3638L5.90875 11.3638C5.8638 11.3522 5.82142 11.3322 5.78375 11.3051L2.30625 8.82258L0.779372 8.05883C0.571867 7.95504 0.41408 7.77308 0.34071 7.55297C0.26734 7.33286 0.284394 7.09262 0.388122 6.88508L1.94125 3.77946C2.04504 3.57195 2.227 3.41417 2.44711 3.3408C2.66722 3.26743 2.90746 3.28448 3.115 3.38821L4.5375 4.09946L7.89687 3.13946C7.96427 3.12018 8.03572 3.12018 8.10312 3.13946L11.4625 4.09946L12.885 3.38821C13.0925 3.28448 13.3328 3.26743 13.5529 3.3408C13.773 3.41417 13.955 3.57195 14.0587 3.77946L15.6119 6.88508C15.6635 6.9878 15.6943 7.09972 15.7024 7.2144C15.7106 7.32907 15.696 7.44422 15.6594 7.55321ZM1.115 7.38821L2.3325 8.00008L4 4.66758L2.77937 4.05883C2.7497 4.0441 2.71539 4.04174 2.68398 4.05229C2.65257 4.06284 2.62664 4.08542 2.61187 4.11508L1.05875 7.22071C1.04421 7.25031 1.04197 7.28446 1.0525 7.31571C1.05738 7.33143 1.06545 7.34599 1.07621 7.35846C1.08696 7.37093 1.10016 7.38106 1.115 7.38821ZM11.9375 9.53071L10.0169 7.99258C8.82937 9.01633 7.29312 9.16758 6.02937 8.36008C5.91881 8.28977 5.82544 8.19553 5.75618 8.0843C5.68691 7.97308 5.6435 7.84772 5.62916 7.71748C5.61483 7.58724 5.62992 7.45544 5.67334 7.33181C5.71675 7.20819 5.78738 7.09589 5.88 7.00321L8.7375 4.23071C8.77907 4.19062 8.82933 4.16068 8.88437 4.14321L8 3.89008L4.76187 4.81258L2.97875 8.38133L6.16 10.6532L9.885 11.5845L11.9375 9.53071ZM13.0425 8.42571L11.2681 4.87508H9.15187L6.4075 7.53758C6.39532 7.55035 6.38614 7.56567 6.38063 7.58243C6.37512 7.59918 6.37341 7.61696 6.37562 7.63446C6.37756 7.65355 6.38387 7.67193 6.39406 7.68819C6.40425 7.70444 6.41804 7.71814 6.43437 7.72821C7.265 8.25883 8.56812 8.40758 9.73375 7.23321C9.79897 7.16773 9.88609 7.12864 9.97836 7.12345C10.0706 7.11826 10.1616 7.14733 10.2337 7.20508L12.4725 9.00008L13.0425 8.42571ZM14.94 7.22071L13.3881 4.11508C13.3734 4.08542 13.3474 4.06284 13.316 4.05229C13.2846 4.04174 13.2503 4.0441 13.2206 4.05883L12.0031 4.66758L13.6675 8.00008L14.885 7.39133C14.8998 7.38418 14.913 7.37406 14.9238 7.36159C14.9345 7.34911 14.9426 7.33456 14.9475 7.31883C14.9531 7.3029 14.9555 7.286 14.9544 7.26913C14.9534 7.25227 14.9489 7.23579 14.9412 7.22071H14.94Z" fill="#6B788E"/>
</svg>
