<svg width="16" height="16" viewBox="0 0 16 16" fill="none" xmlns="http://www.w3.org/2000/svg">
<path d="M15.962 3.31074C15.9999 3.40208 16.0099 3.50261 15.9907 3.59962C15.9714 3.69663 15.9239 3.78576 15.854 3.85574L13.854 5.85574C13.8075 5.90214 13.7523 5.93892 13.6915 5.96397C13.6308 5.98902 13.5657 6.00186 13.5 6.00174H10.707L9.354 7.35474C9.50651 7.67403 9.54124 8.03697 9.45204 8.37939C9.36284 8.72181 9.15545 9.02168 8.86654 9.22598C8.57763 9.43028 8.22579 9.52587 7.87322 9.49585C7.52064 9.46583 7.19003 9.31213 6.93982 9.06192C6.68961 8.81171 6.53591 8.4811 6.50589 8.12852C6.47587 7.77595 6.57146 7.42411 6.77576 7.1352C6.98006 6.84629 7.27993 6.6389 7.62235 6.5497C7.96477 6.4605 8.3277 6.49523 8.647 6.64774L10 5.29474V2.50174C9.99988 2.43603 10.0127 2.37095 10.0378 2.31021C10.0628 2.24947 10.0996 2.19426 10.146 2.14774L12.146 0.147739C12.2159 0.0776326 12.3051 0.0298683 12.4022 0.0105015C12.4993 -0.00886532 12.6 0.00103777 12.6915 0.0389553C12.7829 0.0768728 12.8611 0.141097 12.916 0.223486C12.9709 0.305875 13.0002 0.402719 13 0.50174V3.00174H15.5C15.5989 3.00176 15.6957 3.03113 15.7779 3.08613C15.8601 3.14114 15.9242 3.2193 15.962 3.31074ZM14.293 4.00174H12.5C12.3674 4.00174 12.2402 3.94906 12.1464 3.85529C12.0527 3.76152 12 3.63435 12 3.50174V1.70874L11 2.70874V5.00174H13.293L14.293 4.00174ZM15.607 5.51674C15.862 6.29874 16 7.13474 16 8.00174C15.9996 9.69168 15.4641 11.3381 14.4702 12.7049C13.4764 14.0717 12.0752 15.0886 10.4677 15.6099C8.86015 16.1312 7.12883 16.13 5.52201 15.6065C3.91518 15.0831 2.51539 14.0642 1.52338 12.6961C0.531364 11.328 -0.00191888 9.68083 5.1882e-06 7.99089C0.00192925 6.30095 0.538962 4.65503 1.53409 3.28916C2.52922 1.92329 3.93132 0.907628 5.53933 0.387831C7.14734 -0.131966 8.87866 -0.129197 10.485 0.39574L9.677 1.20374C8.19259 0.837733 6.62917 0.967773 5.22563 1.57399C3.82208 2.1802 2.6556 3.22926 1.90442 4.56086C1.15324 5.89246 0.858662 7.43337 1.06571 8.94815C1.27275 10.4629 1.97002 11.8683 3.05099 12.9495C4.13196 14.0306 5.53717 14.7282 7.05191 14.9355C8.56665 15.1429 10.1076 14.8486 11.4394 14.0977C12.7711 13.3467 13.8204 12.1805 14.4269 10.777C15.0334 9.37361 15.1637 7.81022 14.798 6.32574L15.607 5.51674ZM12.9 7.00174C13.1148 8.05481 12.9845 9.14905 12.5285 10.1223C12.0725 11.0955 11.3151 11.8959 10.3685 12.4048C9.42187 12.9137 8.33647 13.1041 7.27317 12.9477C6.20987 12.7912 5.22527 12.2964 4.46531 11.5364C3.70536 10.7765 3.21049 9.79187 3.05408 8.72857C2.89767 7.66527 3.08803 6.57986 3.59695 5.63325C4.10587 4.68664 4.90626 3.92921 5.87948 3.47322C6.85269 3.01724 7.94693 2.88697 9 3.10174V4.12774C8.15047 3.90858 7.25245 3.97481 6.44426 4.31621C5.63607 4.65762 4.96254 5.25527 4.52742 6.01711C4.09229 6.77895 3.91971 7.66271 4.03626 8.53228C4.1528 9.40185 4.55201 10.209 5.17238 10.8294C5.79276 11.4497 6.59989 11.8489 7.46946 11.9655C8.33902 12.082 9.22279 11.9094 9.98463 11.4743C10.7465 11.0392 11.3441 10.3657 11.6855 9.55748C12.0269 8.74929 12.0932 7.85127 11.874 7.00174H12.9Z" fill="#6B788E"/>
</svg>
